<?xml version="1.0" encoding="UTF-8" standalone="no"?>
<svg
   xmlns:dc="http://purl.org/dc/elements/1.1/"
   xmlns:cc="http://creativecommons.org/ns#"
   xmlns:rdf="http://www.w3.org/1999/02/22-rdf-syntax-ns#"
   xmlns:svg="http://www.w3.org/2000/svg"
   xmlns="http://www.w3.org/2000/svg"
   viewBox="0 0 650.49335 499.56"
   height="499.56"
   width="650.49335"
   xml:space="preserve"
   id="svg2"
   version="1.1">

 <defs>
    <linearGradient id="myGradient"
	 x1="50%" y1="0%"
         x2="0%" y2="50%"
         spreadMethod="pad"
          gradientTransform="rotate(0)">
      <stop offset="0%"  stop-color="#ffcc33" />
      <stop offset="100%" stop-color="#c00" />
    </linearGradient>
  </defs>

<metadata
     id="metadata8"><rdf:RDF><cc:Work
         rdf:about=""><dc:format>image/svg+xml</dc:format><dc:type
           rdf:resource="http://purl.org/dc/dcmitype/StillImage" /></cc:Work></rdf:RDF></metadata>
<defs
     id="defs6" />
<g fill="url('#myGradient')"
     transform="matrix(1.3333333,0,0,-1.3333333,0,499.56)"
     id="g10">

<g fill="url('#myGradient')"
       transform="scale(0.1)"
       id="g12">
<path
         id="path14"
         fill="url('#myGradient')"
         d="m 1145.12,1546.23 h 99.55 c 27.62,0 50,22.38 50,50 0,27.62 -22.38,50 -50,50 h -99.55 c -27.62,0 -50,-22.38 -50,-50 0,-27.62 22.38,-50 50,-50" />
<path
         id="path16"
         fill="url('#myGradient')"
         d="m 4448.11,1024.01 h -288.96 v 144.38 c 0,79.66 64.81,144.47 144.48,144.47 79.66,0 144.47,-64.81 144.47,-144.47 V 1024.01 Z M 4579.56,383.129 H 1128.02 c -71.18,0 -139.891,10.633 -204.79,30.152 60.27,102.309 172.33,338.719 172.33,682.109 0,282 -122.701,565.81 -178.509,680.35 66.687,20.72 137.549,31.9 210.969,31.9 H 4253.64 V 1646.23 H 1544.85 c -27.62,0 -50,-22.39 -50,-50 0,-27.63 22.38,-50 50,-50 h 2708.78 v -99.12 H 1209.65 c -27.62,0 -50,-22.38 -50,-50 0,-27.62 22.38,-50 50,-50 h 2927.42 c -28.96,-27 -51.35,-60.93 -64.54,-99.12 H 1244.67 c -27.62,0 -50,-22.38 -50,-50 0,-27.62 22.38,-50 50,-50 h 2814.48 v -99.11 H 1244.67 c -27.62,0 -50,-22.38 -50,-50.001 0,-27.617 22.38,-50 50,-50 h 2814.48 v -99.117 h -2849.5 c -27.62,0 -50,-22.383 -50,-50 0,-27.621 22.38,-50 50,-50 h 2849.5 V 650.648 H 1145.12 c -27.62,0 -50,-22.378 -50,-50 0,-27.617 22.38,-50 50,-50 H 4059.15 V 525.02 c 0,-27.622 22.38,-50 50,-50 27.62,0 50,22.378 50,50 V 924 h 34.44 V 525.02 c 0,-27.622 22.38,-50 50,-50 27.62,0 50,22.378 50,50 V 924 h 27.26 V 525.02 c 0,-27.622 22.38,-50 50,-50 27.62,0 50,22.378 50,50 V 924 h 27.26 V 525.02 c 0,-27.622 22.38,-50 50,-50 27.62,0 50,22.378 50,50 V 974 1168.38 c 0,75.61 -34.51,143.3 -88.59,188.18 12.63,9.08 20.94,23.8 20.94,40.55 0,27.62 -22.38,50 -50,50 h -76.82 v 99.12 h 76.82 c 27.62,0 50,22.37 50,50 0,27.61 -22.38,50 -50,50 h -76.82 v 161.41 h 225.93 V 383.129 Z M 415.762,1095.39 c 0,283.83 166.918,529.33 407.699,643.71 49.809,-101.63 172.09,-378.19 172.09,-643.71 0,-337.058 -118.149,-565.179 -167.508,-645.781 C 584.809,563.039 415.762,809.77 415.762,1095.39 Z M 4778.67,99.9883 H 1095.38 C 546.52,99.9883 100,546.531 100,1095.39 c 0,548.86 446.52,995.38 995.38,995.38 H 4253.63 V 1907.64 H 1128.02 c -103.98,0 -203.34,-19.85 -294.801,-55.62 -3.727,-1.03 -7.406,-2.37 -10.949,-4.32 -296.739,-121.05 -506.5,-412.57 -506.5,-752.32 0,-339.892 209.937,-631.509 506.882,-752.482 3.36,-1.816 6.879,-3.128 10.457,-4.117 91.493,-35.793 190.901,-55.66 294.921,-55.66 H 4778.68 V 99.9883 Z M 2398.13,3257.64 c 9.01,-13.12 24.09,-21.74 41.21,-21.74 17.12,0 32.2,8.62 41.21,21.74 H 3945.14 V 2190.88 H 933.539 V 3257.64 Z M 155.641,3646.6 H 2389.33 V 3357.64 H 155.641 Z M 4723.03,3357.64 h -369.39 v 225.12 c 0,22.63 -4.61,44.21 -12.94,63.84 h 382.34 v -288.96 z m -531.04,288.96 c 34.19,-1.23 61.64,-29.36 61.64,-63.84 v -225.12 h -258.5 -1505.8 v 288.96 z m 61.64,-1455.83 h -208.5 v 1066.87 h 208.5 z m 525.04,-100 v -183.13 h -425.04 v 183.13 z m 50,-283.13 c 27.62,0 50,22.38 50,50 v 283.13 c 0,27.62 -22.38,50 -50,50 h -475.04 v 1066.87 h 419.39 c 27.62,0 50,22.38 50,50 v 388.96 c 0,27.62 -22.38,50 -50,50 h -581.04 c -0.78,0.01 -1.53,0.12 -2.31,0.12 h -955.66 c -0.4,0 -0.77,-0.11 -1.16,-0.12 H 105.641 c -27.6215,0 -50.0004,-22.38 -50.0004,-50 v -388.96 c 0,-27.62 22.3789,-50 50.0004,-50 h 727.89 V 2159.06 C 355.57,2041.37 0,1609.15 0,1095.39 0,491.391 491.391,0 1095.38,0 h 3733.29 c 27.62,0 50,22.3789 50,50 v 283.129 c 0,27.621 -22.38,50 -50,50 H 4679.56 V 1807.64 h 149.11" />
</g>
</g>
</svg>